<svg width="268" height="60" viewBox="0 0 268 60" fill="none" xmlns="http://www.w3.org/2000/svg">
  <title>Anedot</title>
  <path
    d="M220.807 59.9956C214.879 59.9099 209.211 57.5473 204.977 53.3971C200.744 49.247 198.268 43.6274 198.064 37.7022C198.064 24.776 208.086 15.0405 221.38 15.0405C224.423 15.0472 227.434 15.654 230.242 16.8262C233.049 17.9984 235.598 19.713 237.742 21.8717C239.818 23.977 241.45 26.4771 242.543 29.2243C243.636 31.9715 244.166 34.91 244.103 37.8658C243.98 51.5282 231.913 59.9956 220.807 59.9956ZM221.012 24.0806C217.492 24.1445 214.137 25.5809 211.661 28.0835C209.185 30.5861 207.785 33.9569 207.759 37.4772C207.757 40.989 209.127 44.3626 211.575 46.88C214.024 49.3973 217.358 50.8596 220.869 50.9555C222.654 50.9774 224.425 50.6423 226.079 49.9699C227.733 49.2975 229.235 48.3013 230.499 47.0399C231.762 45.7785 232.761 44.2774 233.435 42.6246C234.11 40.9719 234.448 39.2009 234.429 37.4158C234.418 33.8753 233.004 30.4836 230.497 27.9839C227.989 25.4843 224.593 24.0806 221.053 24.0806H221.012Z"
    fill="#1662F5" />
  <path
    d="M261.298 59.6328C254.659 59.6328 248.394 56.6142 248.394 49.332V2.53271H258.071V16.2111L267.916 16.2111V25.2348H258.071V48.0456C258.071 49.3894 259.086 50.4724 260.644 50.4724H267.916V59.6328H261.298Z"
    fill="#1662F5" />
  <path
    d="M122.902 59.9594C117.163 59.7777 111.713 57.3976 107.68 53.3111C103.646 49.2247 101.338 43.7445 101.231 38.0038C101.231 25.2253 110.652 15.2344 122.678 15.2344C125.572 15.1909 128.445 15.7264 131.129 16.8095C133.813 17.8926 136.253 19.5014 138.307 21.5413C140.36 23.5812 141.984 26.0111 143.085 28.688C144.185 31.3648 144.739 34.2347 144.715 37.1289C144.746 38.4554 144.671 39.7822 144.491 41.0967L144.348 41.9514H111.242C112.013 44.5301 113.588 46.7952 115.737 48.4166C117.885 50.0381 120.495 50.9311 123.187 50.9656C125.367 50.9816 127.511 50.4076 129.392 49.3043C130.991 48.3657 132.35 47.0739 133.366 45.5326H138.4H143.433C141.915 49.76 139.127 53.4151 135.452 55.9975C131.777 58.58 127.393 59.9637 122.902 59.9594ZM134.927 34.0563C134.375 31.2771 132.873 28.7767 130.679 26.9835C128.485 25.1904 125.735 24.2163 122.902 24.2282C120.098 24.268 117.391 25.2639 115.23 27.0511C113.07 28.8383 111.584 31.3097 111.018 34.0563H134.927Z"
    fill="#1662F5" />
  <path fill-rule="evenodd" clip-rule="evenodd"
    d="M193.778 2.43994H184.101V19.1024C180.777 16.4812 175.699 15.0494 171.618 15.0402C158.655 15.0402 148.884 24.7767 148.884 37.7041C149.083 43.6298 151.496 49.25 155.625 53.4006C159.753 57.5511 165.279 59.914 171.059 59.9997C181.773 59.9997 193.765 51.6382 193.765 37.4177C193.765 23.1971 193.778 2.43994 193.778 2.43994ZM162.141 28.0845C164.555 25.5816 167.827 24.1451 171.259 24.0812H171.299C174.751 24.0812 178.062 25.485 180.507 27.9849C182.951 30.4848 184.33 33.8768 184.341 37.4177C184.359 39.203 184.03 40.9741 183.372 42.627C182.714 44.2799 181.74 45.7812 180.509 47.0427C179.277 48.3042 177.812 49.3005 176.199 49.973C174.587 50.6455 172.86 50.9806 171.119 50.9587C167.696 50.8628 164.445 49.4004 162.058 46.8828C159.67 44.3652 158.335 40.9912 158.336 37.4791C158.362 33.9585 159.727 30.5873 162.141 28.0845Z"
    fill="#1662F5" />
  <path fill-rule="evenodd" clip-rule="evenodd"
    d="M76.9911 23.6911C71.2716 23.6911 66.635 28.3277 66.635 34.0472V58.9076H56.9136V35.0634C56.9136 23.9749 65.9026 14.9858 76.9911 14.9858C88.0796 14.9858 97.0687 23.9749 97.0687 35.0634V58.9076H87.3473V34.0472C87.3473 28.3277 82.7107 23.6911 76.9911 23.6911Z"
    fill="#1662F5" />
  <path fill-rule="evenodd" clip-rule="evenodd"
    d="M14.1835 43.6741L9.83833 58.8767H0L14.3499 9.2294C15.9303 3.76168 20.9188 0 26.5895 0C32.2601 0 37.2487 3.76168 38.829 9.2294L53.1789 58.8767H43.3406L38.9954 43.6741C35.0204 44.6657 30.864 45.1914 26.5895 45.1914C22.315 45.1914 18.1586 44.6657 14.1835 43.6741ZM23.4241 11.3443C23.8328 9.9302 25.1229 8.95737 26.5895 8.95737C28.056 8.95737 29.3461 9.9302 29.7548 11.3443L36.5866 35.2463C33.3842 36.0211 30.0371 36.4323 26.5895 36.4323C23.1418 36.4323 19.7947 36.0211 16.5924 35.2463L23.4241 11.3443Z"
    fill="#1662F5" />
</svg>
